<svg width="40" height="40" viewBox="0 0 40 40" fill="none" xmlns="http://www.w3.org/2000/svg">
<rect width="40" height="40" rx="8" fill="black"/>
<path d="M16.3159 16.0391C20.5365 15.9691 21.9539 13 25.3123 13C27.7107 13 29.8597 14.3751 29.8597 15.3903C29.8597 16.4056 27.4905 16.4554 26.5169 16.4554C23.1166 16.3168 19.6945 16.2228 16.3164 16.0391H16.3159ZM26.8594 22.745C33.6794 22.745 37 22.0944 37 20.459C37 18.2166 31.4361 14.3211 30.6186 14.3211C35.2864 17.9573 28.6706 17.6764 26.5523 17.6872C23.7783 17.6054 19.8549 17.014 16.6933 17.347C13.5552 17.6778 14.3462 18.6343 15.0023 19.339C15.6584 20.0437 16.2933 20.3204 19.8577 22.3927C21.4421 22.5989 23.8802 22.7455 26.8594 22.7455V22.745ZM12.6028 16.0701C10.4756 15.8484 9.31052 17.1272 9.31052 17.1272C9.31052 17.1272 6.37149 19.9178 4.60788 21.6673C3.39142 23.4112 3.29991 26.9309 11.1661 27C14.5504 27 19.5842 26.2408 19.9455 26.0397C16.8569 23.5808 15.3032 22.396 15.3032 22.396L12.0175 19.6002C12.0175 19.6002 8.73743 16.3699 12.6028 16.0701Z" fill="white"/>
</svg>
