<svg width="23" height="23" viewBox="0 0 23 23" fill="none" xmlns="http://www.w3.org/2000/svg">
<path d="M11.5011 0C8.37784 0 7.98588 0.0136565 6.7592 0.0694794C5.53491 0.125542 4.69924 0.319365 3.96802 0.60375C3.21165 0.897479 2.57004 1.2904 1.93082 1.92984C1.29113 2.56905 0.898207 3.21066 0.603517 3.96678C0.318409 4.69823 0.124345 5.53414 0.0692402 6.75793C0.014375 7.98459 0 8.37679 0 11.5C0 14.6232 0.0138962 15.014 0.0694801 16.2406C0.125783 17.4649 0.319608 18.3006 0.603756 19.0318C0.897728 19.7881 1.29065 20.4298 1.9301 21.069C2.56908 21.7086 3.21069 22.1025 3.96658 22.3962C4.69828 22.6806 5.53419 22.8745 6.75824 22.9305C7.98492 22.9863 8.37664 23 11.4996 23C14.6226 23 15.0139 22.9863 16.2406 22.9305C17.4648 22.8745 18.3015 22.6806 19.0332 22.3962C19.7893 22.1025 20.43 21.7086 21.0689 21.069C21.7086 20.4298 22.1016 19.7881 22.3962 19.032C22.679 18.3006 22.873 17.4647 22.9305 16.2409C22.9856 15.0142 23 14.6232 23 11.5C23 8.37679 22.9856 7.98483 22.9305 6.75817C22.873 5.5339 22.679 4.69823 22.3962 3.96702C22.1016 3.21066 21.7086 2.56905 21.0689 1.92984C20.4292 1.29016 19.7896 0.89724 19.0325 0.60375C18.2993 0.319365 17.4632 0.125542 16.2389 0.0694794C15.0122 0.0136565 14.6217 0 11.4975 0H11.5011ZM10.4694 2.0724C10.7756 2.07192 11.1173 2.0724 11.5011 2.0724C14.5716 2.0724 14.9355 2.08342 16.1481 2.13852C17.2693 2.18979 17.8779 2.37715 18.2833 2.53455C18.8199 2.74299 19.2026 2.99216 19.6048 3.39466C20.0073 3.79716 20.2565 4.18049 20.4654 4.71716C20.6228 5.12205 20.8104 5.73059 20.8615 6.85184C20.9166 8.06413 20.9285 8.4283 20.9285 11.4974C20.9285 14.5664 20.9166 14.9306 20.8615 16.1429C20.8102 17.2641 20.6228 17.8727 20.4654 18.2776C20.257 18.8142 20.0073 19.1964 19.6048 19.5986C19.2023 20.0011 18.8202 20.2503 18.2833 20.4587C17.8784 20.6169 17.2693 20.8037 16.1481 20.855C14.9358 20.9101 14.5716 20.9221 11.5011 20.9221C8.43055 20.9221 8.06638 20.9101 6.85407 20.855C5.73281 20.8033 5.12426 20.6159 4.71864 20.4585C4.18197 20.2501 3.79863 20.0009 3.39613 19.5984C2.99362 19.1959 2.74446 18.8135 2.53554 18.2766C2.37813 17.8717 2.19053 17.2632 2.1395 16.1419C2.0844 14.9296 2.07338 14.5655 2.07338 11.4945C2.07338 8.42351 2.0844 8.06126 2.1395 6.84897C2.19077 5.72772 2.37813 5.11918 2.53554 4.7138C2.74398 4.17713 2.99362 3.7938 3.39613 3.3913C3.79863 2.9888 4.18197 2.73964 4.71864 2.53072C5.12402 2.37259 5.73281 2.18572 6.85407 2.13421C7.91496 2.08629 8.32609 2.07192 10.4694 2.06952V2.0724ZM17.6397 3.98187C16.8779 3.98187 16.2597 4.59928 16.2597 5.3614C16.2597 6.12351 16.8779 6.7414 17.6397 6.7414C18.4016 6.7414 19.0198 6.12327 19.0198 5.3614C19.0198 4.59952 18.4016 3.9814 17.6397 3.9814V3.98187ZM11.5011 5.59427C8.2396 5.59427 5.59529 8.23855 5.59529 11.5C5.59529 14.7614 8.2396 17.4045 11.5011 17.4045C14.7626 17.4045 17.4059 14.7614 17.4059 11.5C17.4059 8.23855 14.7626 5.59427 11.5011 5.59427ZM11.5011 7.66667C13.6181 7.66667 15.3345 9.3828 15.3345 11.5C15.3345 13.6172 13.6181 15.3333 11.5011 15.3333C9.3841 15.3333 7.66771 13.617 7.66771 11.5C7.66771 9.38304 9.38386 7.66667 11.5011 7.66667Z" fill="#D6FFF6"/>
</svg>
