<svg width="41" height="40" viewBox="0 0 41 40" fill="none" xmlns="http://www.w3.org/2000/svg">
<g clip-path="url(#clip0_31_159)">
<path d="M7.26042 0H33.7396C37.7542 0 41 3.24786 41 7.26496V32.735C41 36.7521 37.7542 40 33.7396 40H7.26042C3.24583 40 0 36.7521 0 32.735V7.26496C0 3.24786 3.24583 0 7.26042 0Z" fill="#001E36"/>
<path d="M9.22498 28.0512V10.4615C9.22498 10.3418 9.27623 10.2735 9.39581 10.2735C9.68623 10.2735 9.95956 10.2735 10.3525 10.2564C10.7625 10.2393 11.1896 10.2393 11.6508 10.2222C12.1121 10.2051 12.6075 10.2051 13.1371 10.188C13.6666 10.1709 14.1791 10.1709 14.6916 10.1709C16.0925 10.1709 17.2541 10.3418 18.2108 10.7008C19.065 10.9914 19.8508 11.47 20.5 12.1025C21.0466 12.6495 21.4737 13.3162 21.7471 14.0512C22.0033 14.7692 22.14 15.5042 22.14 16.2735C22.14 17.7435 21.7983 18.9572 21.115 19.9145C20.4316 20.8718 19.475 21.5897 18.3646 22C17.2029 22.4273 15.9216 22.5812 14.5208 22.5812C14.1108 22.5812 13.8375 22.5812 13.6666 22.5641C13.4958 22.547 13.2566 22.547 12.9321 22.547V28.0341C12.9491 28.1538 12.8637 28.2564 12.7441 28.2735H9.42998C9.29331 28.2735 9.22498 28.2051 9.22498 28.0512ZM12.9491 13.5726V19.3162C13.1883 19.3333 13.4104 19.3504 13.6154 19.3504H14.5208C15.1871 19.3504 15.8533 19.2478 16.4854 19.0427C17.0321 18.8888 17.5104 18.5641 17.8862 18.1367C18.245 17.7094 18.4158 17.1282 18.4158 16.376C18.4329 15.8461 18.2962 15.3162 18.0229 14.8547C17.7325 14.4102 17.3225 14.0683 16.8271 13.8803C16.195 13.6239 15.5116 13.5213 14.8112 13.5384C14.3671 13.5384 13.9741 13.5384 13.6496 13.5555C13.3079 13.5384 13.0687 13.5555 12.9491 13.5726Z" fill="#31A8FF"/>
<path d="M32.8 18.2734C32.2875 17.9999 31.7409 17.8119 31.16 17.6922C30.5279 17.5555 29.8959 17.47 29.2467 17.47C28.905 17.4529 28.5463 17.5042 28.2217 17.5896C27.9996 17.6409 27.8117 17.7606 27.6921 17.9315C27.6067 18.0683 27.5554 18.2392 27.5554 18.3931C27.5554 18.5469 27.6238 18.7008 27.7263 18.8375C27.88 19.0255 28.085 19.1794 28.3071 19.299C28.7 19.5042 29.11 19.6922 29.52 19.8631C30.4425 20.1708 31.3309 20.5982 32.1509 21.111C32.7146 21.47 33.1759 21.9486 33.5004 22.5298C33.7738 23.0768 33.9104 23.6751 33.8934 24.2905C33.9104 25.0939 33.6713 25.8973 33.2271 26.564C32.7488 27.2478 32.0825 27.7777 31.3138 28.0854C30.4767 28.4443 29.4517 28.6324 28.2217 28.6324C27.4359 28.6324 26.6671 28.564 25.8984 28.4102C25.3004 28.3076 24.7025 28.1196 24.1559 27.8631C24.0363 27.7948 23.9509 27.6751 23.9679 27.5384V24.564C23.9679 24.5127 23.985 24.4443 24.0363 24.4102C24.0875 24.376 24.1388 24.3931 24.19 24.4272C24.8563 24.8204 25.5567 25.0939 26.3084 25.2649C26.9575 25.4358 27.6409 25.5213 28.3242 25.5213C29.0075 25.5213 29.4346 25.4358 29.7421 25.2819C30.0154 25.1623 30.2034 24.8717 30.2034 24.564C30.2034 24.3247 30.0667 24.1025 29.7934 23.8802C29.52 23.658 28.9563 23.4016 28.1192 23.0768C27.2479 22.7691 26.445 22.3589 25.6934 21.8461C25.1638 21.47 24.7196 20.9743 24.395 20.3931C24.1217 19.8461 23.985 19.2478 24.0021 18.6495C24.0021 17.9144 24.2071 17.2136 24.5829 16.5811C25.01 15.8973 25.6421 15.3503 26.3767 15.0084C27.1796 14.5982 28.1875 14.4102 29.4004 14.4102C30.1009 14.4102 30.8184 14.4614 31.5188 14.564C32.0313 14.6324 32.5267 14.7691 32.9879 14.9572C33.0563 14.9743 33.1246 15.0426 33.1588 15.111C33.1759 15.1794 33.1929 15.2478 33.1929 15.3161V18.1025C33.1929 18.1708 33.1588 18.2392 33.1075 18.2734C32.9538 18.3076 32.8684 18.3076 32.8 18.2734Z" fill="#31A8FF"/>
</g>
<defs>
<clipPath id="clip0_31_159">
<rect width="41" height="40" fill="white"/>
</clipPath>
</defs>
</svg>
