<svg width="41" height="40" viewBox="0 0 41 40" fill="none" xmlns="http://www.w3.org/2000/svg">
<g clip-path="url(#clip0_30_145)">
<path d="M7.25975 0H33.7403C37.7539 0 41 3.248 41 7.264V32.736C41 36.752 37.7539 40 33.7403 40H7.25975C3.2461 40 0 36.752 0 32.736V7.264C0 3.248 3.2461 0 7.25975 0Z" fill="#001E36"/>
<path d="M21.5234 28.2721H10.6978C10.5059 28.2721 10.4259 28.1761 10.4259 27.9681V10.4961C10.4099 10.3841 10.4899 10.2721 10.6178 10.2561H14.0238C14.1038 10.2401 14.2157 10.3041 14.2157 10.4001V24.8001H22.1151C22.291 24.8001 22.3389 24.8801 22.307 25.0401L21.8113 28.0161C21.8113 28.0961 21.7633 28.1761 21.7153 28.2241C21.6513 28.2561 21.5874 28.2721 21.5234 28.2721Z" fill="#31A8FF"/>
<path d="M24.2578 14.5921H27.2481C27.424 14.5921 27.5519 14.7041 27.5999 14.8641C27.6638 14.9761 27.7118 15.1201 27.7438 15.2641C27.7758 15.4401 27.8077 15.6161 27.8237 15.7921C27.8397 15.9841 27.8557 16.1921 27.8557 16.4001C28.3674 15.8081 28.991 15.3121 29.6786 14.9281C30.4622 14.4961 31.3417 14.2881 32.2212 14.3201C32.3331 14.3041 32.445 14.3841 32.461 14.5121V17.9201C32.461 18.0641 32.3811 18.1121 32.1892 18.1121C31.0858 18.0481 29.9665 18.2561 28.9591 18.6881C28.6233 18.8481 28.2875 19.0401 28.0316 19.3281V28.0481C28.0316 28.2241 27.9676 28.2881 27.8077 28.2881H24.4817C24.3378 28.3041 24.2258 28.2241 24.2098 28.0801V18.5441C24.2098 18.1281 24.2098 17.7121 24.1939 17.2641C24.1779 16.8161 24.1779 16.3681 24.1619 15.9361C24.1459 15.5521 24.1139 15.1841 24.0659 14.8001C24.0499 14.7201 24.0979 14.6241 24.1779 14.6081C24.2098 14.5761 24.2258 14.5761 24.2578 14.5921Z" fill="#31A8FF"/>
</g>
<defs>
<clipPath id="clip0_30_145">
<rect width="41" height="40" fill="white"/>
</clipPath>
</defs>
</svg>
