<svg width="41" height="40" viewBox="0 0 41 40" fill="none" xmlns="http://www.w3.org/2000/svg">
<g clip-path="url(#clip0_30_155)">
<path d="M7.26042 0H33.7396C37.7542 0 41 3.24786 41 7.26496V32.735C41 36.7521 37.7542 40 33.7396 40H7.26042C3.24583 40 0 36.7521 0 32.735V7.26496C0 3.24786 3.24583 0 7.26042 0Z" fill="#330000"/>
<path d="M19.8167 23.9317H13.4617L12.1633 27.9487C12.1292 28.1026 11.9925 28.2052 11.8387 28.1881H8.62707C8.43916 28.1881 8.38791 28.0855 8.43916 27.8804L13.94 12.0342C13.9912 11.8633 14.0425 11.6752 14.1108 11.4701C14.1792 11.1111 14.2133 10.7351 14.2133 10.359C14.1962 10.2735 14.2646 10.1881 14.35 10.171H18.7746C18.9112 10.171 18.9796 10.2223 18.9967 10.3077L25.2321 27.9146C25.2833 28.1026 25.2321 28.1881 25.0612 28.1881H21.4908C21.3712 28.2052 21.2517 28.1197 21.2175 28L19.8167 23.9317ZM14.4525 20.4616H18.7917C18.6892 20.1026 18.5525 19.6752 18.3987 19.2308C18.245 18.7693 18.0912 18.2735 17.9375 17.7607C17.7667 17.2308 17.6129 16.718 17.4421 16.1881C17.2712 15.6582 17.1175 15.1624 16.9808 14.6667C16.8442 14.1881 16.7246 13.7436 16.605 13.3334H16.5708C16.4171 14.0684 16.2292 14.8035 15.99 15.5385C15.7337 16.359 15.4775 17.2137 15.2042 18.0684C14.965 18.9402 14.7087 19.7436 14.4525 20.4616ZM29.0417 13.1624C28.4779 13.1795 27.9312 12.9573 27.5212 12.5641C27.1283 12.1368 26.9233 11.5727 26.9404 10.9915C26.9233 10.4103 27.1454 9.86328 27.5554 9.47012C27.9654 9.07695 28.5121 8.87183 29.0758 8.87183C29.7421 8.87183 30.2546 9.07695 30.6304 9.47012C31.0062 9.88037 31.2112 10.4274 31.1942 10.9915C31.2112 11.5727 31.0062 12.1368 30.5962 12.5641C30.2033 12.9744 29.6225 13.1966 29.0417 13.1624ZM27.1283 28V14.8376C27.1283 14.6667 27.1967 14.5983 27.3504 14.5983H30.7329C30.8867 14.5983 30.955 14.6838 30.955 14.8376V28C30.955 28.1881 30.8867 28.2735 30.7329 28.2735H27.3846C27.2137 28.2735 27.1283 28.171 27.1283 28Z" fill="#FF9A00"/>
</g>
<defs>
<clipPath id="clip0_30_155">
<rect width="41" height="40" fill="white"/>
</clipPath>
</defs>
</svg>
