<svg width="41" height="40" viewBox="0 0 41 40" fill="none" xmlns="http://www.w3.org/2000/svg">
<g clip-path="url(#clip0_30_140)">
<path d="M7.26042 0H33.7396C37.7542 0 41 3.24786 41 7.26496V32.735C41 36.7521 37.7542 40 33.7396 40H7.26042C3.24583 40 0 36.7521 0 32.735V7.26496C0 3.24786 3.24583 0 7.26042 0Z" fill="#00005B"/>
<path d="M9.73749 28.0342V10.4273C9.73749 10.3077 9.78874 10.2393 9.90832 10.2393C10.1987 10.2393 10.4721 10.2393 10.865 10.2222C11.275 10.2051 11.7021 10.2051 12.1633 10.188C12.6246 10.1709 13.12 10.1709 13.6496 10.1538C14.1792 10.1367 14.6917 10.1367 15.2042 10.1367C16.605 10.1367 17.7667 10.3077 18.7233 10.6666C19.5775 10.9572 20.3633 11.4359 21.0125 12.0683C21.5592 12.6154 21.9862 13.282 22.2596 14.0171C22.5158 14.735 22.6525 15.4701 22.6525 16.2393C22.6525 17.7094 22.3108 18.923 21.6275 19.8803C20.9442 20.8376 19.9875 21.5555 18.8771 21.9658C17.7154 22.3931 16.4342 22.547 15.0333 22.547C14.6233 22.547 14.35 22.547 14.1792 22.5299C14.0083 22.5128 13.7692 22.5128 13.4446 22.5128V28C13.4617 28.1196 13.3762 28.2222 13.2567 28.2393H9.94249C9.80582 28.2393 9.73749 28.1709 9.73749 28.0171V28.0342ZM13.4617 13.5555V19.2991C13.7008 19.3162 13.9229 19.3333 14.1279 19.3333H15.0333C15.6996 19.3333 16.3658 19.2307 16.9979 19.0256C17.5446 18.8718 18.0229 18.547 18.3987 18.1196C18.7575 17.6923 18.9283 17.1111 18.9283 16.3589C18.9454 15.829 18.8087 15.2991 18.5354 14.8376C18.245 14.3931 17.835 14.0512 17.3396 13.8632C16.7075 13.6068 16.0242 13.5042 15.3237 13.5213C14.8796 13.5213 14.4867 13.5213 14.1621 13.5384C13.8204 13.5213 13.5812 13.5384 13.4617 13.5555Z" fill="#9999FF"/>
<path d="M25.1125 14.564H28.1021C28.2729 14.564 28.4096 14.6837 28.4609 14.8375C28.5121 14.9743 28.5463 15.111 28.5634 15.2649C28.5975 15.4358 28.6317 15.6238 28.6488 15.7948C28.6659 15.9828 28.6829 16.1879 28.6829 16.4102C29.1954 15.8119 29.8104 15.3162 30.5109 14.9401C31.2967 14.4956 32.2021 14.2734 33.1075 14.2734C33.2271 14.2563 33.3296 14.3418 33.3467 14.4615V17.8632C33.3467 17.9999 33.2613 18.0512 33.0734 18.0512C32.4584 18.0341 31.8263 18.0854 31.2284 18.2221C30.7329 18.3247 30.2546 18.4785 29.7934 18.6837C29.4688 18.8375 29.1613 19.0426 28.9221 19.3162V28.0341C28.9221 28.205 28.8538 28.2734 28.7 28.2734H25.3346C25.1979 28.2905 25.0784 28.205 25.0613 28.0683V18.5298C25.0613 18.1196 25.0613 17.6922 25.0442 17.2478C25.0271 16.8033 25.0271 16.3589 25.01 15.9144C25.01 15.5213 24.9759 15.1452 24.9417 14.7521C24.9246 14.6666 24.9759 14.5811 25.0613 14.564C25.0613 14.5469 25.0954 14.5469 25.1125 14.564Z" fill="#9999FF"/>
</g>
<defs>
<clipPath id="clip0_30_140">
<rect width="41" height="40" fill="white"/>
</clipPath>
</defs>
</svg>
