<svg width="41" height="40" viewBox="0 0 41 40" fill="none" xmlns="http://www.w3.org/2000/svg">
<g clip-path="url(#clip0_30_150)">
<path d="M7.26042 0H33.7396C37.7542 0 41 3.24786 41 7.26496V32.735C41 36.7521 37.7542 40 33.7396 40H7.26042C3.24583 40 0 36.7521 0 32.735V7.26496C0 3.24786 3.24583 0 7.26042 0Z" fill="#49021F"/>
<path d="M14.8967 10.4616V28.0685C14.8967 28.2565 14.8113 28.342 14.6575 28.342H11.3092C11.1554 28.342 11.0871 28.2565 11.0871 28.0685V10.4616C11.0871 10.3078 11.1725 10.2394 11.3263 10.2394H14.6575C14.76 10.2223 14.8625 10.2907 14.8796 10.4104C14.8967 10.4274 14.8967 10.4445 14.8967 10.4616Z" fill="#FF3366"/>
<path d="M24.7708 28.547C23.5067 28.5641 22.2425 28.3077 21.0979 27.7778C20.0217 27.2821 19.1333 26.4616 18.5183 25.453C17.8863 24.4103 17.5788 23.1111 17.5788 21.5556C17.5617 20.2906 17.8863 19.0428 18.5183 17.9487C19.1675 16.8376 20.1071 15.9146 21.2346 15.2992C22.4304 14.6325 23.8654 14.3077 25.5567 14.3077C25.6421 14.3077 25.7617 14.3077 25.9154 14.3248C26.0692 14.3419 26.24 14.3419 26.445 14.359V8.95729C26.445 8.83763 26.4963 8.76926 26.6159 8.76926H30.0838C30.1692 8.75216 30.2375 8.82054 30.2546 8.88892V25.1966C30.2546 25.5043 30.2717 25.8462 30.2888 26.2222C30.3229 26.5812 30.34 26.9231 30.3571 27.2137C30.3571 27.3334 30.3058 27.4359 30.1863 27.4872C29.2979 27.8633 28.3583 28.1368 27.4017 28.3077C26.5475 28.4616 25.6592 28.547 24.7708 28.547ZM26.445 25.1282V17.6069C26.2913 17.5727 26.1375 17.5385 25.9838 17.5214C25.7959 17.5043 25.6079 17.4872 25.42 17.4872C24.7538 17.4872 24.0875 17.624 23.4896 17.9317C22.9088 18.2223 22.4133 18.6496 22.0375 19.1966C21.6617 19.7436 21.4738 20.4787 21.4738 21.3675C21.4567 21.9658 21.5592 22.5641 21.7642 23.1282C21.935 23.5898 22.1913 24 22.5329 24.3419C22.8575 24.6496 23.2504 24.8889 23.6946 25.0257C24.1558 25.1795 24.6342 25.2479 25.1125 25.2479C25.3688 25.2479 25.6079 25.2308 25.83 25.2137C26.0521 25.2308 26.2571 25.1966 26.445 25.1282Z" fill="#FF3366"/>
</g>
<defs>
<clipPath id="clip0_30_150">
<rect width="41" height="40" fill="white"/>
</clipPath>
</defs>
</svg>
