<svg width="40" height="40" viewBox="0 0 40 40" fill="none" xmlns="http://www.w3.org/2000/svg">
<rect width="40" height="40" rx="8" fill="black"/>
<path d="M15.2941 34.1176C17.898 34.1176 20 32.0156 20 29.4117V24.7058H15.2941C12.6902 24.7058 10.5882 26.8078 10.5882 29.4117C10.5882 32.0156 12.6902 34.1176 15.2941 34.1176Z" fill="#0ACF83"/>
<path d="M10.5882 20.0001C10.5882 17.3962 12.6902 15.2942 15.2941 15.2942H20V24.706H15.2941C12.6902 24.706 10.5882 22.604 10.5882 20.0001Z" fill="#A259FF"/>
<path d="M10.5882 10.5882C10.5882 7.98429 12.6902 5.88232 15.2941 5.88232H20V15.2941H15.2941C12.6902 15.2941 10.5882 13.1921 10.5882 10.5882Z" fill="#F24E1E"/>
<path d="M20 5.88232H24.7059C27.3098 5.88232 29.4118 7.98429 29.4118 10.5882C29.4118 13.1921 27.3098 15.2941 24.7059 15.2941H20V5.88232Z" fill="#FF7262"/>
<path d="M29.4118 20.0001C29.4118 22.604 27.3098 24.706 24.7059 24.706C22.102 24.706 20 22.604 20 20.0001C20 17.3962 22.102 15.2942 24.7059 15.2942C27.3098 15.2942 29.4118 17.3962 29.4118 20.0001Z" fill="#1ABCFE"/>
</svg>
