<svg width="41" height="40" viewBox="0 0 41 40" fill="none" xmlns="http://www.w3.org/2000/svg">
<g clip-path="url(#clip0_30_130)">
<path d="M7.26042 0H33.7396C37.7542 0 41 3.24786 41 7.26496V32.735C41 36.7521 37.7542 40 33.7396 40H7.26042C3.24583 40 0 36.7521 0 32.735V7.26496C0 3.24786 3.24583 0 7.26042 0Z" fill="#00005B"/>
<path d="M16.4684 23.9316H10.1134L8.81503 27.9657C8.78086 28.1196 8.64419 28.2222 8.49044 28.2051H5.27878C5.09086 28.2051 5.03961 28.1025 5.09086 27.8974L10.5917 12.1196C10.6429 11.9486 10.6942 11.7948 10.7625 11.5897C10.8309 11.2307 10.865 10.8546 10.865 10.4786C10.8479 10.3931 10.9163 10.3076 11.0017 10.2905H15.4263C15.5459 10.2905 15.6313 10.3418 15.6484 10.4273L21.8838 27.8632C21.935 28.0512 21.8838 28.1367 21.7129 28.1367H18.1425C18.0229 28.1538 17.9034 28.0683 17.8692 27.9486L16.4684 23.8461V23.9316ZM11.1042 20.5298H15.4434C15.3409 20.1709 15.2042 19.7435 15.0504 19.2991C14.8967 18.8375 14.7429 18.3418 14.5892 17.829C14.4184 17.2991 14.2646 16.7863 14.0938 16.2563C13.9229 15.7264 13.7692 15.2307 13.6325 14.735C13.4959 14.2563 13.3763 13.8119 13.2567 13.4016H13.2225C13.0688 14.1367 12.8809 14.8717 12.6417 15.6068C12.3854 16.4273 12.1292 17.282 11.8559 18.1367C11.6338 19.0085 11.3604 19.8119 11.1042 20.5298Z" fill="#9999FF"/>
<path d="M31.9458 22.3932H26.5304C26.5987 22.9232 26.7696 23.4531 27.06 23.9146C27.3675 24.3762 27.7946 24.7351 28.3071 24.9403C28.9904 25.2309 29.7421 25.3847 30.4937 25.3676C31.0916 25.3505 31.6896 25.2992 32.2704 25.1796C32.8 25.1112 33.3125 24.9744 33.7908 24.7864C33.8762 24.718 33.9275 24.7522 33.9275 24.9232V27.5385C33.9275 27.6069 33.9104 27.6753 33.8933 27.7437C33.8591 27.795 33.825 27.8291 33.7737 27.8633C33.2271 28.1026 32.6633 28.2736 32.0654 28.3762C31.2625 28.53 30.4596 28.5984 29.6396 28.5813C28.3412 28.5813 27.2479 28.3762 26.3596 27.983C25.5225 27.624 24.7879 27.0599 24.2071 26.3591C23.6604 25.6924 23.2675 24.9403 23.0283 24.1197C22.7891 23.3163 22.6696 22.4787 22.6696 21.624C22.6696 20.7009 22.8062 19.795 23.0966 18.9061C23.37 18.0514 23.7971 17.265 24.3779 16.5642C24.9416 15.8804 25.6421 15.3334 26.445 14.9403C27.2479 14.5471 28.2046 14.4103 29.2979 14.4103C30.2033 14.3932 31.1087 14.5642 31.9458 14.9403C32.6462 15.248 33.2612 15.7095 33.7396 16.3078C34.1837 16.889 34.5425 17.5385 34.7646 18.2565C34.9866 18.9403 35.0891 19.6411 35.0891 20.342C35.0891 20.7522 35.0721 21.1112 35.055 21.436C35.0208 21.7608 35.0037 22.0001 34.9866 22.1539C34.9696 22.2736 34.8671 22.3762 34.7475 22.3762C34.645 22.3762 34.4571 22.3932 34.1837 22.4103C33.9104 22.4445 33.5858 22.4616 33.1929 22.4616C32.8 22.4616 32.39 22.3932 31.9458 22.3932ZM26.5304 19.8975H30.135C30.5791 19.8975 30.9037 19.8975 31.1087 19.8804C31.2454 19.8633 31.3821 19.8291 31.5016 19.7437V19.5727C31.5016 19.3505 31.4675 19.1454 31.3991 18.9403C31.0916 17.983 30.1862 17.3334 29.1783 17.3676C28.2387 17.3163 27.3504 17.8121 26.9062 18.6668C26.7012 19.0599 26.5816 19.4702 26.5304 19.8975Z" fill="#9999FF"/>
</g>
<defs>
<clipPath id="clip0_30_130">
<rect width="41" height="40" fill="white"/>
</clipPath>
</defs>
</svg>
