<svg width="41" height="33" viewBox="0 0 41 33" fill="none" xmlns="http://www.w3.org/2000/svg">
<g clip-path="url(#clip0_30_125)">
<path d="M16.1201 18.3176C16.2695 15.6774 17.5741 13.3505 19.5432 11.7017C21.4741 10.0823 24.0732 9.09204 26.9084 9.09204C29.7435 9.09204 32.3402 10.0823 34.2723 11.7017C36.2402 13.3505 37.5447 15.6774 37.6954 18.3151C37.8449 21.0288 36.7442 23.5491 34.8134 25.4182C32.8442 27.3192 30.0437 28.5114 26.9084 28.5114C23.7731 28.5114 20.9663 27.3192 18.9984 25.4182C17.0663 23.5503 15.9681 21.0288 16.1188 18.3188L16.1201 18.3176Z" fill="white"/>
<path d="M21.3728 18.5551C21.4494 17.2001 22.1189 16.0067 23.1294 15.1597C24.1202 14.3285 25.4531 13.8206 26.9084 13.8206C28.3636 13.8206 29.6953 14.3285 30.6873 15.1597C31.6966 16.0055 32.3662 17.2001 32.444 18.5527C32.5206 19.9444 31.956 21.2382 30.9653 22.1966C29.9548 23.1722 28.518 23.7842 26.9096 23.7842C25.3012 23.7842 23.8608 23.1722 22.8515 22.1966C21.8595 21.2382 21.2962 19.9444 21.374 18.5539L21.3728 18.5551Z" fill="#265787"/>
<path d="M12.5586 21.2933C12.5684 21.8233 12.7389 22.8539 12.9946 23.6581C13.5332 25.3608 14.4449 26.9373 15.7149 28.3254C17.0182 29.7526 18.6229 30.8995 20.4759 31.7135C22.424 32.5679 24.5353 33.0036 26.728 33C28.917 32.9975 31.0283 32.5532 32.9764 31.6915C34.8294 30.8701 36.4329 29.7183 37.7337 28.2899C39.0024 26.8957 39.9141 25.3167 40.454 23.6141C40.7257 22.7536 40.8962 21.8796 40.9654 21.0032C41.0321 20.1403 41.0049 19.2749 40.8814 18.4107C40.6393 16.7264 40.0525 15.1474 39.147 13.7067C38.3193 12.3835 37.2519 11.2244 35.982 10.2488L35.9845 10.2464L23.1751 0.504273C23.164 0.495705 23.1541 0.485912 23.1418 0.478568C22.3017 -0.160378 20.8885 -0.15793 19.9645 0.48224C19.0305 1.12975 18.9231 2.20079 19.7545 2.87645L19.7508 2.88013L25.0924 7.18383L8.8105 7.20097H8.78826C7.44297 7.2022 6.14832 8.07738 5.89261 9.18268C5.62948 10.3088 6.54364 11.244 7.94329 11.2489L7.94081 11.2538L16.1929 11.2378L1.46882 22.439C1.45029 22.4525 1.42929 22.4671 1.412 22.4806C0.0222281 23.5345 -0.426204 25.2873 0.448423 26.3963C1.33664 27.5236 3.22425 27.5261 4.62884 26.4024L12.666 19.8844C12.666 19.8844 12.5487 20.7645 12.5586 21.2921V21.2933ZM33.2111 24.2395C31.5545 25.9116 29.237 26.859 26.728 26.8639C24.2153 26.8688 21.8978 25.9287 20.2412 24.2604C19.432 23.4476 18.8378 22.5112 18.4709 21.5148C18.1114 20.5356 17.9718 19.4952 18.0645 18.4462C18.1522 17.4204 18.4598 16.4424 18.9515 15.5575C19.4345 14.6872 20.1004 13.9013 20.9219 13.2367C22.5315 11.9368 24.581 11.2329 26.7243 11.2305C28.8701 11.228 30.9183 11.9245 32.5292 13.2208C33.3495 13.883 34.0141 14.6664 34.4971 15.5342C34.9913 16.418 35.2964 17.3935 35.3878 18.4217C35.4792 19.4695 35.3396 20.5075 34.9801 21.4879C34.6132 22.488 34.0203 23.4231 33.2111 24.2395Z" fill="#EA7600"/>
</g>
<defs>
<clipPath id="clip0_30_125">
<rect width="41" height="33" fill="white"/>
</clipPath>
</defs>
</svg>
