<svg width="92" height="85" viewBox="0 0 92 85" fill="none" xmlns="http://www.w3.org/2000/svg">
<g clip-path="url(#clip0_27_31)">
<path d="M48.5221 14.3035H46.7075V43.8504C47.9091 44.1655 48.7962 45.2659 48.7962 46.5741C48.7962 47.1596 48.618 47.7044 48.3128 48.154C47.8106 48.8985 46.9627 49.3875 46 49.3875C45.0373 49.3875 44.1894 48.8985 43.6872 48.154C43.382 47.7044 43.2038 47.1596 43.2038 46.5741C43.2038 45.2659 44.0909 44.1655 45.2925 43.8504V14.3035H43.4779L30.3854 46.5741L36.5664 67.2407H55.4336L61.6146 46.5741L48.5221 14.3035ZM30.3854 69.0026V75.9295H61.6146V69.0026H30.3854ZM34.5398 77.921V84.6604H57.4602V77.921H34.5398Z" fill="#D6FFF6"/>
<path d="M51.2062 0H41.08V10.1886H51.2062V0Z" fill="#D6FFF6"/>
<path d="M10.1262 41.1891H0V51.3777H10.1262V41.1891Z" fill="#D6FFF6"/>
<path d="M86.9369 46.2833C86.9369 23.5356 68.6085 5.09424 46 5.09424C23.3916 5.09424 5.06311 23.5356 5.06311 46.2833" stroke="#D6FFF6" stroke-width="3" stroke-miterlimit="10"/>
<path d="M92 41.1891H81.8738V51.3777H92V41.1891Z" fill="#D6FFF6"/>
<path d="M5.06311 5.09424H86.9369" stroke="#D6FFF6" stroke-width="3" stroke-miterlimit="10"/>
<path d="M86.9369 10.1886C89.7332 10.1886 92 7.9078 92 5.0943C92 2.28079 89.7332 0 86.9369 0C84.1406 0 81.8738 2.28079 81.8738 5.0943C81.8738 7.9078 84.1406 10.1886 86.9369 10.1886Z" fill="#D6FFF6"/>
<path d="M5.06311 10.1886C7.85938 10.1886 10.1262 7.9078 10.1262 5.0943C10.1262 2.28079 7.85938 0 5.06311 0C2.26683 0 0 2.28079 0 5.0943C0 7.9078 2.26683 10.1886 5.06311 10.1886Z" fill="#D6FFF6"/>
</g>
<defs>
<clipPath id="clip0_27_31">
<rect width="92" height="85" fill="white"/>
</clipPath>
</defs>
</svg>
