<svg width="101" height="85" viewBox="0 0 101 85" fill="none" xmlns="http://www.w3.org/2000/svg">
<path d="M100.812 82.3638C100.853 82.2937 100.889 82.2198 100.915 82.1423C100.93 82.0943 100.941 82.0463 100.952 82.002C100.963 81.9577 100.978 81.9097 100.985 81.8654C100.993 81.81 100.993 81.7509 100.993 81.6955C100.993 81.6549 101 81.618 100.996 81.5811C100.993 81.4814 100.978 81.3854 100.952 81.2894L99.1906 74.3002C98.9916 73.5101 98.1882 73.0301 97.3996 73.2295C96.6109 73.4289 96.1319 74.2338 96.3309 75.0239L97.2227 78.5609L78.0486 67.1006V38.8854C78.0486 38.7968 78.0376 38.7082 78.0228 38.6233C78.0192 38.6011 78.0155 38.579 78.0081 38.5568C77.9897 38.4756 77.9676 38.3944 77.9344 38.3168C77.9307 38.3094 77.927 38.2984 77.9197 38.291C77.8902 38.2208 77.8533 38.1544 77.8128 38.0916C77.8017 38.0731 77.787 38.0547 77.7759 38.0362C77.728 37.9698 77.6764 37.9033 77.6175 37.8442C77.6175 37.8442 77.6138 37.8442 77.6101 37.8405C77.5548 37.7852 77.4885 37.7335 77.4222 37.6855C77.4037 37.6707 77.3816 37.6596 77.3632 37.6449C77.3448 37.6338 77.3263 37.619 77.3079 37.6079L52.0533 22.9982V5.03605L54.6329 7.62054C55.2078 8.19651 56.1402 8.19651 56.7188 7.62054C57.2936 7.04457 57.2936 6.11046 56.7188 5.5308L51.6295 0.431978C51.3531 0.155069 50.9772 0 50.5866 0C50.196 0 49.8201 0.155069 49.5437 0.431978L44.4544 5.5308C43.8796 6.10677 43.8796 7.04087 44.4544 7.62054C44.7419 7.90852 45.1178 8.05251 45.4974 8.05251C45.8769 8.05251 46.2528 7.90852 46.5403 7.62054L49.1088 5.04713V22.9945L23.6773 37.7039C23.6589 37.715 23.6405 37.7298 23.6221 37.7409C23.6036 37.7519 23.5852 37.7667 23.5668 37.7778C23.5005 37.8258 23.4341 37.8775 23.3788 37.9328C23.3788 37.9328 23.3788 37.9328 23.3752 37.9365C23.3162 37.9956 23.2646 38.0621 23.2167 38.1285C23.202 38.147 23.1909 38.1654 23.1798 38.1839C23.1393 38.2467 23.1025 38.3131 23.073 38.3833C23.0693 38.3907 23.0656 38.4017 23.0619 38.4091C23.0288 38.4867 23.0066 38.5679 22.9882 38.6491C22.9845 38.6713 22.9772 38.6934 22.9735 38.7156C22.9587 38.8005 22.9477 38.8891 22.9477 38.9777V67.1929L3.77363 78.6532L4.66545 75.1162C4.86445 74.3261 4.38538 73.5212 3.59675 73.3218C2.8118 73.1224 2.00474 73.6024 1.80574 74.3925L0.0442223 81.3928C0.0184259 81.4888 0.00737038 81.5848 0 81.6845C0 81.7251 0 81.762 0.00368519 81.7989C0.00368519 81.858 0.00368519 81.9134 0.0110556 81.9688C0.0184259 82.0168 0.0331667 82.0611 0.0442223 82.1054C0.0552778 82.1534 0.0626482 82.2014 0.0810742 82.2457C0.106871 82.3232 0.143722 82.397 0.184259 82.4672C0.19163 82.482 0.195315 82.493 0.202685 82.5078C0.246908 82.5817 0.2985 82.6518 0.353778 82.7146C0.368519 82.7293 0.379575 82.7441 0.394315 82.7589C0.449593 82.8179 0.504871 82.8696 0.567519 82.9176C0.57489 82.9213 0.578575 82.9287 0.585945 82.9324C0.655964 82.9841 0.729668 83.0284 0.803371 83.0653C0.821797 83.0727 0.836538 83.0838 0.854964 83.0912C0.936038 83.1281 1.0208 83.1613 1.10556 83.1835L8.08531 84.952C8.20692 84.9815 8.32853 84.9963 8.44646 84.9963C9.1061 84.9963 9.70679 84.5496 9.87631 83.8813C10.0753 83.0912 9.59623 82.2863 8.8076 82.0869L5.27719 81.1934L24.4254 69.7478L49.6616 84.3465C49.7058 84.3723 49.7537 84.3945 49.798 84.4129C49.809 84.4166 49.8201 84.424 49.8311 84.4314C49.9085 84.4646 49.9896 84.4868 50.0707 84.5053C50.0928 84.5089 50.1149 84.5126 50.137 84.52C50.2255 84.5348 50.3102 84.5459 50.3987 84.5459C50.4871 84.5459 50.5719 84.5348 50.6603 84.52C50.6824 84.5163 50.7045 84.5126 50.7266 84.5053C50.8077 84.4868 50.8888 84.4646 50.9662 84.4314C50.9772 84.4277 50.9883 84.4203 50.9993 84.4129C51.0436 84.3908 51.0915 84.3723 51.1357 84.3465L76.5598 69.6408L95.7081 81.0863L92.1777 81.9798C91.389 82.1792 90.9099 82.9841 91.1089 83.7742C91.2785 84.4425 91.8792 84.8892 92.5388 84.8892C92.6567 84.8892 92.7783 84.8745 92.8999 84.8449L99.8797 83.0764C99.9645 83.0542 100.049 83.021 100.13 82.9841C100.149 82.9767 100.167 82.9693 100.182 82.9583C100.259 82.9213 100.333 82.877 100.399 82.8253C100.407 82.8216 100.41 82.8143 100.418 82.8106C100.48 82.7626 100.536 82.7109 100.591 82.6518C100.606 82.637 100.617 82.6223 100.631 82.6075C100.687 82.5447 100.738 82.4746 100.783 82.4007C100.79 82.3897 100.794 82.3749 100.801 82.3601L100.812 82.3638ZM25.8958 41.5437L48.9319 54.8686V80.5104L25.8958 67.1855V41.5437ZM51.8801 54.8686L75.1079 41.433V67.0747L51.8801 80.5104V54.8686ZM50.594 25.5532L73.6301 38.878L50.4023 52.3137L27.3662 38.9888L50.594 25.5532Z" fill="#D6FFF6"/>
</svg>
