<svg width="23" height="23" viewBox="0 0 23 23" fill="none" xmlns="http://www.w3.org/2000/svg">
<path fill-rule="evenodd" clip-rule="evenodd" d="M23 23H18.2744V14.9509C18.2744 12.7442 17.4358 11.5106 15.6891 11.5106C13.7889 11.5106 12.796 12.7942 12.796 14.9509V23H8.24152V7.66652H12.796V9.7321C12.796 9.7321 14.1653 7.19812 17.419 7.19812C20.6726 7.19812 22.9996 9.18408 22.9996 13.2918L23 23ZM2.80821 5.65889C1.25704 5.65889 0 4.39212 0 2.82944C0 1.26677 1.25704 0 2.80821 0C4.35939 0 5.61598 1.26677 5.61598 2.82944C5.61598 4.39212 4.35983 5.65889 2.80821 5.65889ZM0.456904 23H5.20596V7.66652H0.456904V23Z" fill="#D6FFF6"/>
</svg>
