<svg width="89" height="85" viewBox="0 0 89 85" fill="none" xmlns="http://www.w3.org/2000/svg">
<path d="M88.6499 39.7551L77.6407 28.7784L88.2602 17.8174C88.5268 17.5415 88.6465 17.1563 88.581 16.7791C88.5155 16.4018 88.2749 16.0775 87.9304 15.9063L57.215 0.626452C56.779 0.409102 56.2549 0.475546 55.8867 0.793125L44.3546 10.7574L33.8955 0.351668C33.5284 -0.0132106 32.9693 -0.10443 32.5051 0.126434L0.780996 15.9074C0.43876 16.0775 0.197048 16.4007 0.131538 16.7768C0.0660273 17.153 0.183495 17.5381 0.447796 17.814L10.9543 28.766L0.363084 39.0873C0.0931351 39.3508 -0.0378861 39.7247 0.00955265 40.0975C0.0569913 40.4702 0.277242 40.8013 0.604795 40.9883L11.4445 47.2047V65.2876C11.4445 65.7144 11.6716 66.1086 12.0398 66.3248L43.6882 84.8345C43.6882 84.8345 43.6916 84.8367 43.6938 84.8378C43.6949 84.8378 43.6972 84.8401 43.6983 84.8412C43.7221 84.8547 43.748 84.8649 43.7729 84.8772C43.7943 84.8874 43.8158 84.8998 43.8373 84.9088C43.8666 84.9212 43.8971 84.929 43.9265 84.9392C43.9468 84.9459 43.9672 84.9538 43.9875 84.9595C44.0214 84.9685 44.0564 84.9741 44.0914 84.9797C44.1083 84.9831 44.1253 84.9876 44.1422 84.9899C44.1942 84.9966 44.2461 85 44.2981 85C44.3501 85 44.402 84.9966 44.454 84.9899C44.4698 84.9876 44.4856 84.9831 44.5014 84.9809C44.5376 84.9752 44.5737 84.9685 44.6087 84.9595C44.6268 84.955 44.6437 84.9471 44.6618 84.9414C44.6946 84.9313 44.7273 84.9212 44.7589 84.9088C44.777 84.9009 44.7951 84.8908 44.8131 84.8829C44.8414 84.8694 44.8696 84.857 44.8967 84.8423C44.899 84.8412 44.9001 84.8401 44.9024 84.839C44.9035 84.839 44.9058 84.8378 44.9069 84.8367L76.5587 66.327C76.928 66.1108 77.1539 65.7166 77.1539 65.2898V48.3613L88.4138 41.6381C88.7324 41.4477 88.9458 41.1223 88.991 40.754C89.0362 40.3869 88.9097 40.0186 88.6465 39.7562L88.6499 39.7551ZM56.8592 3.13555L85.3845 17.3264L75.7082 27.3132L46.4283 12.1483L56.8581 3.13555H56.8592ZM3.32123 17.3309L32.8066 2.66481L42.2797 12.0897L12.8948 27.311L3.32123 17.3309ZM3.18795 39.6966L12.8349 30.2953L42.3429 47.5572L33.0506 56.8222L3.18795 39.6966ZM43.0929 81.6992L13.856 64.5995V48.5888L32.6485 59.3651C32.7027 59.3955 32.7581 59.4214 32.8145 59.4428C32.8326 59.4495 32.8507 59.4552 32.8688 59.4608C32.9083 59.4743 32.9478 59.4856 32.9885 59.4946C33.0088 59.4991 33.0303 59.5036 33.0506 59.507C33.0913 59.5137 33.1331 59.5182 33.1737 59.5205C33.1918 59.5205 33.211 59.5239 33.2291 59.5239C33.2358 59.5239 33.2415 59.525 33.2483 59.525C33.2641 59.525 33.2799 59.5205 33.2968 59.5205C33.3477 59.5182 33.3996 59.5137 33.4504 59.5058C33.4753 59.5013 33.5001 59.4957 33.525 59.4901C33.5713 59.4788 33.6165 59.4653 33.6617 59.4495C33.6865 59.4405 33.7102 59.4315 33.7351 59.4214C33.7814 59.4011 33.8254 59.3775 33.8684 59.3516C33.8887 59.3392 33.909 59.329 33.9282 59.3155C33.9892 59.2738 34.048 59.2277 34.1022 59.1736L43.0929 50.2093V81.6992ZM44.2981 45.9119L15.1436 28.8572L42.9969 14.4276L44.2981 13.7531L46.2634 14.7711L73.456 28.8572L44.2981 45.9119ZM74.7447 64.5995L45.5044 81.6992V50.028L55.6484 60.1421C55.7026 60.1962 55.7613 60.2423 55.8223 60.284C55.8415 60.2975 55.863 60.3077 55.8833 60.3201C55.9262 60.346 55.9703 60.3696 56.0166 60.3899C56.0414 60.4011 56.0663 60.4101 56.0923 60.4192C56.1363 60.4349 56.1804 60.4484 56.2255 60.4586C56.2527 60.4653 56.2786 60.471 56.3057 60.4755C56.3532 60.4833 56.4006 60.4867 56.4481 60.489C56.4661 60.489 56.4842 60.4946 56.5023 60.4946C56.5113 60.4946 56.5203 60.4935 56.5294 60.4924C56.5497 60.4924 56.5689 60.4901 56.5892 60.4879C56.631 60.4845 56.6717 60.48 56.7124 60.4732C56.7338 60.4698 56.7541 60.4653 56.7745 60.4608C56.8163 60.4507 56.8569 60.4383 56.8987 60.4248C56.9168 60.418 56.9349 60.4135 56.9518 60.4068C57.0094 60.3831 57.0659 60.3572 57.1212 60.3246L74.7458 49.8005V64.6006L74.7447 64.5995ZM75.3433 46.6394C75.3433 46.6394 75.3354 46.6439 75.3309 46.6461L56.6886 57.7783L46.3685 47.4885L75.7567 30.2987L85.851 40.3644L75.3433 46.6383V46.6394Z" fill="#D6FFF6"/>
</svg>
