<svg width="23" height="15" viewBox="0 0 23 15" fill="none" xmlns="http://www.w3.org/2000/svg">
<path d="M0.558594 0.5H22.4414C22.45 0.500116 22.467 0.504718 22.4824 0.519531C22.4956 0.532268 22.5 0.544809 22.5 0.557617V14.4424C22.5 14.4393 22.5004 14.4418 22.4971 14.4492C22.4935 14.457 22.4874 14.4676 22.4775 14.4775C22.4593 14.4958 22.4447 14.4993 22.4414 14.5H0.558594C0.541402 14.4999 0.528405 14.4945 0.517578 14.4834C0.504769 14.4703 0.5 14.454 0.5 14.4424V0.557617C0.5 0.541708 0.502574 0.531027 0.504883 0.525391C0.507161 0.519916 0.510119 0.516295 0.512695 0.513672C0.51627 0.510107 0.528216 0.500073 0.558594 0.5ZM0.589844 14.415L1.39258 13.8037L8.20898 8.61035C8.23051 8.5981 8.25643 8.59321 8.27832 8.5957C8.29409 8.59752 8.30147 8.60233 8.30664 8.60742C8.31217 8.61536 8.31499 8.62308 8.31348 8.63379C8.31172 8.64565 8.30495 8.66029 8.28906 8.67383L1.92871 13.4863L0.740234 14.3848H22.2998L21.123 13.4873L14.8135 8.67188L14.7998 8.66113C14.7963 8.6551 14.794 8.64864 14.793 8.6416C14.791 8.62789 14.794 8.61795 14.7998 8.61035C14.8 8.61009 14.8036 8.60308 14.8252 8.60059C14.8492 8.59784 14.8764 8.60507 14.8975 8.61719L21.584 13.7305L22.3877 14.3447V0.623047L21.6201 1.11035L11.542 7.50977L11.5127 7.5293L11.5049 7.53516C11.4912 7.53466 11.4678 7.53079 11.4375 7.51758L1.35938 1.08398L0.589844 0.592773V14.415ZM2.22266 1.50781L11.2158 7.27148L11.4844 7.44336L11.7539 7.27246L20.8252 1.50879L22.2764 0.586914H0.786133L2.22266 1.50781Z" stroke="#D6FFF6"/>
</svg>
